# xmcd
#
# Track frame offsets: 
#        150
#        16741
#        36874
#        46828
#        55684
#        92728
#        109654
#        129749
#        146806
#        164914
#        194391
#        212886
#        257250
#        274674
#
# Disc length: 4095 seconds
#
# Revision: 0
# Processed by: cddbd v1.4PL0 Copyright (c) Steve Scherf et al.
# Submitted via: ExactAudioCopy v0.95a3
#
DISCID=c70ffd0e
DTITLE=Various Artist - Last of the Mississippi Jukes
DYEAR=2003
DGENRE=Blues
TTITLE0=Alvin Youngblood Hart and Sam Carr - Joe Friday
TTITLE1=Deep Cuts - Every Goodbye Don't Mean I'm Gone
TTITLE2=Bobby Rush - Garbage Man
TTITLE3=Greg "Fingers" Taylor, Casey Phillips and Hounds - Subway Swing
TTITLE4=Patrice Moncell and House Rockers - Stormy Monday
TTITLE5=Levon Lindsey and J. T. Watkins - You Know I've Tried
TTITLE6=Vasti Jackson and King Edward Blues Band - Casion in the Cottonf
TTITLE6=ield
TTITLE7=Chris Thomas King - John Law Burned the Liquor Sto'
TTITLE8=Dennis Fountain, Pat Brown and Jesse Robinson - Blues is Alright
TTITLE9=Lucille and Greg "Fingers" Taylor - What Goes Around, Comes Arou
TTITLE9=nd
TTITLE10=King Edward Blues Band - Hole in the Wall
TTITLE11=Patrice Moncell, Vasti Jackson and House Rockers - Strokin'
TTITLE12=Abdul Rasheed and House Rockers - Members Only
TTITLE13=David Hughes, Jimmy King and Virgil Brawley - Juke Joint Jam
EXTD=
EXTT0=
EXTT1=
EXTT2=
EXTT3=
EXTT4=
EXTT5=
EXTT6=
EXTT7=
EXTT8=
EXTT9=
EXTT10=
EXTT11=
EXTT12=
EXTT13=
PLAYORDER=
